<svg id="visual" viewBox="0 0 900 600" width="900" height="600" xmlns="http://www.w3.org/2000/svg" xmlns:xlink="http://www.w3.org/1999/xlink" version="1.1"><rect width="900" height="600" fill="#001829"></rect><g><g transform="translate(795 537)"><path d="M0 -91.7L79.4 -45.8L79.4 45.8L0 91.7L-79.4 45.8L-79.4 -45.8Z" fill="#297EA6"></path></g><g transform="translate(643 206)"><path d="M0 -63L54.6 -31.5L54.6 31.5L0 63L-54.6 31.5L-54.6 -31.5Z" fill="#297EA6"></path></g><g transform="translate(176 579)"><path d="M0 -54L46.8 -27L46.8 27L0 54L-46.8 27L-46.8 -27Z" fill="#297EA6"></path></g><g transform="translate(454 442)"><path d="M0 -72L62.4 -36L62.4 36L0 72L-62.4 36L-62.4 -36Z" fill="#297EA6"></path></g><g transform="translate(9 199)"><path d="M0 -84L72.7 -42L72.7 42L0 84L-72.7 42L-72.7 -42Z" fill="#297EA6"></path></g><g transform="translate(287 189)"><path d="M0 -50L43.3 -25L43.3 25L0 50L-43.3 25L-43.3 -25Z" fill="#297EA6"></path></g><g transform="translate(64 386)"><path d="M0 -42L36.4 -21L36.4 21L0 42L-36.4 21L-36.4 -21Z" fill="#297EA6"></path></g></g></svg>